PathFileType	4	(X/Y/Z)	C:/Users/opensim2020/Desktop/walking_exp_matlab/subject03_walking13_straight_01.trc																																																																																																																																								
DataRate	CameraRate	NumFrames	NumMarkers	Units	OrigDataRate	OrigDataStartFrame	OrigNumFrames																																																																																																																																				
100	100	8	46	mm	100	615	185																																																																																																																																				
Frame#	Time	LFHD			RFHD			LBHD			RBHD			C7			T10			CLAV			STRN			RBAK			LSHO			LUPA			LELB			LFRM			LWRA			LWRB			LFIN			RSHO			RUPA			RELB			RFRM			RWRA			RWRB			RFIN			LASI			RASI			LPSI			RPSI			LTHI			LKNE			LTIB			LANK			LHEE			LTOE			RTHI			RKNE			RTIB			RANK			RHEE			RTOE			*39			*40			*41			*42			*43			*44			*45		
		X1	Y1	Z1	X2	Y2	Z2	X3	Y3	Z3	X4	Y4	Z4	X5	Y5	Z5	X6	Y6	Z6	X7	Y7	Z7	X8	Y8	Z8	X9	Y9	Z9	X10	Y10	Z10	X11	Y11	Z11	X12	Y12	Z12	X13	Y13	Z13	X14	Y14	Z14	X15	Y15	Z15	X16	Y16	Z16	X17	Y17	Z17	X18	Y18	Z18	X19	Y19	Z19	X20	Y20	Z20	X21	Y21	Z21	X22	Y22	Z22	X23	Y23	Z23	X24	Y24	Z24	X25	Y25	Z25	X26	Y26	Z26	X27	Y27	Z27	X28	Y28	Z28	X29	Y29	Z29	X30	Y30	Z30	X31	Y31	Z31	X32	Y32	Z32	X33	Y33	Z33	X34	Y34	Z34	X35	Y35	Z35	X36	Y36	Z36	X37	Y37	Z37	X38	Y38	Z38	X39	Y39	Z39	X40	Y40	Z40	X41	Y41	Z41	X42	Y42	Z42	X43	Y43	Z43	X44	Y44	Z44	X45	Y45	Z45	X46	Y46	Z46
																																																																																																																																											
70	0.69	-484.90173	1624.77002	-1055.85144	-509.49493	1625.46289	-924.87634	-599.00299	1555.7113	-1074.30371	-618.9115	1556.38074	-944.80176	-615.75739	1402.95422	-1010.2179	-647.71722	1096.17078	-1011.98761	-488.12955	1334.46643	-998.83813	-439.75949	1168.47034	-1005.10663	-672.2395	1229.39795	-924.97064	-534.24457	1376.04114	-1155.41577	-514.13837	1187.349	-1230.87659	-473.35327	1073.13611	-1238.79858	-380.90155	990.21301	-1215.69592	-297.42279	921.82861	-1161.47583	-310.94836	900.20343	-1210.15454	-241.4454	862.55969	-1188.10669	-559.25482	1360.07434	-846.85577	-589.24689	1139.07532	-776.49542	-587.44635	1024.93372	-765.00952	-600.42877	888.42523	-760.09607	-593.15826	786.26837	-791.9696	-624.9433	790.81384	-747.68219	-633.45038	714.03021	-762.47876	-495.73892	917.50153	-1118.81042	-491.90463	938.74976	-885.57251	-656.43707	944.91418	-1070.47559	-652.8902	967.93958	-923.20123	-554.92139	608.85034	-1163.26392	-555.50275	429.04861	-1139.40857	-718.73199	316.96054	-1141.26404	-886.40417	196.04291	-1104.91687	-933.9364	215.85277	-1070.73242	-851.31262	52.79396	-1065.47827	-500.82852	647.68011	-832.98877	-447.19345	478.11591	-876.86786	-473.67612	283.94281	-869.23981	-489.08344	68.82098	-915.54419	-535.52838	36.01428	-966.21124	-349.5231	33.31037	-931.24329	NaN	NaN	NaN	NaN	NaN	NaN	NaN	NaN	NaN	NaN	NaN	NaN	NaN	NaN	NaN	NaN	NaN	NaN	NaN	NaN	NaN
71	0.7	-471.68069	1626.25623	-1055.67542	-496.06076	1627.29614	-924.61041	-585.96179	1557.43494	-1073.67126	-605.55298	1558.32837	-944.15021	-602.75293	1404.70862	-1008.79907	-634.50604	1097.67456	-1010.85968	-475.36566	1336.11218	-998.66132	-426.73801	1170.17139	-1005.39514	-658.58954	1230.82239	-922.56421	-522.62109	1377.3031	-1155.14893	-504.34149	1187.87817	-1229.86499	-464.28546	1073.00781	-1237.83447	-373.34006	987.96332	-1215.35669	-291.04807	917.23602	-1162.15979	-305.54071	896.28778	-1210.85608	-237.14275	856.19049	-1189.54053	-544.5827	1361.38525	-845.73492	-572.41876	1140.28076	-774.68634	-569.86511	1026.21667	-762.85693	-580.61389	889.49237	-757.83038	-572.15356	787.42407	-790.7229	-603.36847	791.46606	-745.79187	-609.94147	714.59296	-760.63831	-482.32965	918.73602	-1117.89111	-478.48251	940.03339	-884.95691	-643.448	945.64063	-1069.84741	-639.67932	969.75183	-922.51563	-536.39032	610.48785	-1162.4823	-529.10266	430.54944	-1138.87244	-692.24878	319.9921	-1139.28333	-860.55182	199.67822	-1102.47021	-908.79803	218.33607	-1067.40942	-822.45898	56.5612	-1066.11292	-492.72583	647.82178	-832.80432	-442.1105	477.42578	-875.83398	-471.22818	283.73175	-868.56805	-489.27246	68.91239	-915.48138	-535.65729	36.078	-966.04102	-349.58646	33.21446	-931.12653	NaN	NaN	NaN	-567.05469	1669.67224	-1034.8291	NaN	NaN	NaN	NaN	NaN	NaN	NaN	NaN	NaN	NaN	NaN	NaN	NaN	NaN	NaN
72	0.71	-458.53992	1627.79028	-1055.62158	-482.45215	1629.05505	-924.47412	-573.01135	1559.12195	-1073.12219	-592.15436	1560.2926	-943.55505	-589.66522	1406.56787	-1007.53973	-621.46283	1099.10742	-1009.77386	-462.48413	1337.75781	-998.56433	-413.86716	1171.85889	-1005.60498	-644.89307	1232.24683	-920.28931	-511.02444	1378.5072	-1154.80542	-494.60059	1188.54883	-1229.19629	-455.3187	1072.84412	-1237.16956	-366.12299	985.3689	-1215.13831	-284.95081	912.39917	-1163.18542	-300.85846	891.88641	-1211.89905	-233.7076	849.29993	-1191.14453	-529.93237	1362.71838	-844.82886	-555.24316	1141.45667	-773.04443	-551.88165	1027.53235	-760.82526	-560.45142	890.62897	-755.78406	-550.04529	788.78558	-788.62122	-581.40344	792.22833	-743.94647	-585.28143	715.40094	-758.13953	-469.94345	920.10345	-1117.82874	-465.17059	941.2597	-884.33716	-630.5769	946.61169	-1069.06909	-626.53888	971.42889	-921.63983	-517.50873	612.76337	-1161.64783	-503.04828	433.31299	-1138.46863	-665.52954	322.46252	-1137.65112	-833.35168	201.19638	-1099.99438	-882.27899	218.64545	-1064.32007	-791.65912	59.07436	-1065.69507	-484.25162	648.42694	-832.24969	-437.15182	476.85989	-875.08795	-469.15643	283.66147	-867.98151	-489.60178	69.00069	-915.34229	-535.79492	36.13649	-965.98163	-349.69385	33.16824	-931.0481	NaN	NaN	NaN	-553.54858	1671.3811	-1034.43347	NaN	NaN	NaN	NaN	NaN	NaN	NaN	NaN	NaN	NaN	NaN	NaN	NaN	NaN	NaN
73	0.72	-445.31393	1629.24573	-1055.50269	-468.82144	1630.82434	-924.3606	-559.94684	1560.76123	-1072.58069	-578.75403	1562.21155	-942.97821	-576.60742	1408.31812	-1006.37329	-608.50165	1100.64893	-1008.5611	-449.61423	1339.39575	-998.50537	-400.86609	1173.51587	-1005.79156	-631.32275	1233.74719	-918.15723	-499.37271	1379.85999	-1154.68811	-484.88486	1189.14465	-1228.41907	-446.41599	1072.82886	-1236.18982	-359.3461	982.52985	-1215.22668	-280.4173	906.34778	-1164.29773	-296.75436	887.1275	-1213.23987	-231.05357	841.92139	-1192.87439	-515.43134	1364.08081	-843.9455	-537.84161	1142.69153	-771.57855	-533.67334	1028.89758	-758.95569	-539.80457	891.88177	-753.87604	-527.63153	790.41241	-786.67084	-558.72998	792.91339	-742.12134	-559.96454	716.49799	-755.82312	-457.46362	921.87408	-1117.59644	-452.05695	942.16022	-883.70258	-617.74719	947.9201	-1068.12195	-613.48145	972.96027	-920.65869	-497.72971	615.30798	-1160.68384	-477.42584	436.67377	-1137.995	-638.54956	323.85278	-1136.22095	-804.98126	200.93515	-1097.47021	-854.81189	216.63934	-1061.35974	-758.56769	60.3735	-1064.52283	-476.07935	648.88702	-831.91565	-432.47	476.41049	-874.50958	-467.24585	283.67047	-867.58948	-489.78815	69.0862	-915.27069	-535.9375	36.26036	-965.93127	-349.82336	33.11686	-930.9696	NaN	NaN	NaN	NaN	NaN	NaN	NaN	NaN	NaN	NaN	NaN	NaN	NaN	NaN	NaN	NaN	NaN	NaN	NaN	NaN	NaN
74	0.73	-432.06348	1630.57849	-1055.39856	-455.31995	1632.43701	-924.24286	-546.90149	1562.24792	-1072.34985	-565.29993	1563.96619	-942.51746	-563.57556	1409.95813	-1005.35449	-595.60236	1102.19116	-1007.28809	-436.7865	1340.9248	-998.45709	-388.01526	1175.15503	-1005.8869	-617.69122	1235.20947	-916.21027	-487.66605	1381.16223	-1154.4707	-475.2821	1189.66492	-1227.5177	-437.61005	1072.63306	-1234.98889	-352.93115	979.50122	-1215.50891	-276.11282	900.3194	-1165.73022	-293.37424	882.16956	-1214.7771	-229.21883	834.30737	-1194.87598	-500.93787	1365.5105	-843.26611	-520.3349	1143.95911	-770.30774	-515.08728	1030.37231	-757.30548	-518.76477	893.24927	-752.30933	-503.97278	792.38342	-784.28217	-535.93799	794.06091	-740.19159	-534.25128	717.69519	-753.23267	-444.80048	924.06805	-1116.99487	-439.04263	942.98004	-882.87512	-604.99615	949.63519	-1067.10364	-600.43311	974.2876	-919.56525	-477.38074	617.90405	-1159.75781	-452.22543	440.21945	-1137.38647	-611.38025	324.60782	-1134.6853	-775.65338	198.83589	-1094.83374	-826.58295	212.2153	-1058.39368	-723.02777	60.74553	-1063.05615	-467.35062	649.24225	-831.54065	-428.23856	475.92453	-873.72797	-465.43991	283.69028	-867.35229	-490.06696	69.34328	-915.63794	-536.1402	36.6755	-966.16443	-349.87823	33.06858	-930.88507	-533.07629	1675.17896	-1019.43469	NaN	NaN	NaN	NaN	NaN	NaN	NaN	NaN	NaN	NaN	NaN	NaN	NaN	NaN	NaN	NaN	NaN	NaN
75	0.74	-418.84976	1631.76404	-1055.44568	-441.70786	1633.83484	-924.18433	-533.80206	1563.65576	-1071.90381	-551.94287	1565.63025	-942.05334	-550.52399	1411.47375	-1004.41907	-582.67896	1103.57288	-1005.83826	-423.93991	1342.33789	-998.36005	-375.1138	1176.56787	-1005.93274	-604.18579	1236.70044	-914.53937	-475.9939	1382.35107	-1154.09509	-465.63852	1190.19727	-1226.75488	-429.15524	1072.47205	-1234.15735	-346.97226	976.31604	-1216.01392	-272.3858	894.22821	-1167.35986	-290.58432	877.10516	-1216.55261	-228.23985	826.42804	-1197.0824	-486.73022	1366.93237	-842.72107	-502.8277	1145.29895	-769.21539	-496.28275	1031.92212	-755.88745	-497.68497	894.76599	-750.32031	-481.33246	794.24854	-782.86212	-512.81927	795.3764	-738.36456	-508.11096	719.29694	-750.58954	-431.50592	926.50226	-1115.50171	-426.13437	943.6178	-882.00378	-592.13092	951.58594	-1066.01184	-587.42352	975.474	-918.4505	-457.19946	620.48083	-1158.91321	-427.55148	443.76404	-1136.60876	-583.90894	325.20782	-1132.96021	-745.37823	195.14189	-1092.35559	-797.24683	206.02122	-1055.54968	-685.5069	60.16542	-1061.39624	-459.50018	649.60242	-832.33459	-424.20197	475.37369	-873.36615	-463.83771	283.78201	-867.20782	-490.35602	69.51676	-915.59186	-536.03027	36.51396	-966.09009	-349.90271	32.97763	-930.89191	NaN	NaN	NaN	NaN	NaN	NaN	NaN	NaN	NaN	NaN	NaN	NaN	NaN	NaN	NaN	NaN	NaN	NaN	NaN	NaN	NaN
76	0.75	-405.48523	1632.75671	-1055.32764	-428.24683	1635.03601	-924.03125	-520.64197	1564.88757	-1071.58057	-538.52063	1567.05627	-941.66925	-537.38141	1412.70935	-1003.59009	-569.73828	1104.86719	-1004.32227	-411.10461	1343.6322	-998.28351	-362.33002	1177.81226	-1005.85089	-590.70624	1238.08606	-913.0694	-464.12207	1383.49182	-1153.78027	-455.89542	1190.56079	-1225.94641	-420.83301	1072.29688	-1233.30334	-341.46661	973.11298	-1216.67432	-269.31876	887.97601	-1169.23938	-288.35193	871.99011	-1218.54822	-228.06818	818.45532	-1199.5199	-472.68256	1368.29517	-842.28473	-485.29819	1146.62646	-768.19336	-477.26373	1033.53857	-754.64655	-476.04239	896.40259	-748.96936	-457.94141	796.32715	-781.09399	-489.29178	796.79456	-736.5614	-481.66766	721.15161	-747.87878	-418.8689	928.80823	-1114.67688	-413.34979	944.19812	-881.0741	-579.35522	953.61462	-1065.07031	-574.51227	976.47974	-917.37329	-437.54767	623.10986	-1158.25745	-403.55191	447.34195	-1135.78345	-556.51837	324.73367	-1131.12769	-714.0069	189.95537	-1089.79333	-766.6947	197.8213	-1052.59924	-646.11768	59.05912	-1059.54456	-450.97894	649.87189	-832.06842	-420.15701	474.77344	-873.00116	-462.26697	283.8392	-867.12152	-490.40305	69.66876	-915.78003	-536.04059	36.6899	-966.24908	-349.87662	32.86259	-930.94537	NaN	NaN	NaN	NaN	NaN	NaN	NaN	NaN	NaN	NaN	NaN	NaN	NaN	NaN	NaN	NaN	NaN	NaN	NaN	NaN	NaN
77	0.76	-392.09488	1633.57715	-1055.31628	-414.63568	1636.04187	-924.04816	-507.45554	1565.94751	-1071.27246	-525.1474	1568.33936	-941.35828	-524.4646	1413.87756	-1002.91718	-556.77826	1106.13623	-1002.74408	-398.21606	1344.63306	-998.17462	-349.61185	1178.76843	-1005.64667	-577.32721	1239.43726	-911.65796	-452.0687	1384.44519	-1153.51501	-446.13425	1190.74609	-1224.96094	-412.58423	1071.93201	-1232.69104	-336.19724	969.7951	-1217.44067	-266.80106	881.40399	-1171.18262	-286.6091	866.88281	-1220.63159	-228.59749	810.44934	-1202.19922	-458.68634	1369.58887	-841.8205	-467.9028	1147.91113	-767.26843	-457.96368	1035.06726	-753.51886	-454.23703	898.10913	-747.49713	-434.28485	798.55994	-779.54578	-465.24908	798.36243	-734.91425	-454.53629	723.32654	-745.35217	-405.93628	931.14667	-1113.45654	-400.86182	944.50171	-880.02917	-566.51959	955.62787	-1064.19116	-561.52264	977.2887	-916.323	-418.51389	625.8855	-1157.61975	-380.09488	450.97345	-1134.84253	-528.77924	323.46021	-1129.38538	-681.16248	183.31352	-1087.10193	-734.87421	188.0199	-1049.68237	-605.12061	57.40728	-1057.72107	-442.49399	649.63715	-831.97119	-415.77014	474.06439	-872.91858	-460.37802	283.84653	-867.05249	-490.09131	69.78863	-916.06458	-536.1106	37.23425	-966.58746	-349.82935	32.7495	-931.02258	NaN	NaN	NaN	NaN	NaN	NaN	NaN	NaN	NaN	NaN	NaN	NaN	NaN	NaN	NaN	NaN	NaN	NaN	NaN	NaN	NaN
